<?xml version="1.0" standalone="no"?>
<!DOCTYPE svg PUBLIC "-//W3C//DTD SVG 1.1//EN" "http://www.w3.org/Graphics/SVG/1.1/DTD/svg11.dtd">
<svg xmlns="http://www.w3.org/2000/svg">
<metadata>Generated by Fontastic.me</metadata>
<defs>
<font id="newspaper" horiz-adv-x="512">
<font-face font-family="newspaper" units-per-em="512" ascent="480" descent="-32"/>
<missing-glyph horiz-adv-x="512" />

<glyph glyph-name="whatsapp" unicode="&#57344;" d="M318 229c2 0 12-4 28-12 16-9 24-14 25-16 1-1 1-2 1-4 0-6-2-13-5-22-3-7-10-13-20-18-11-5-20-8-29-8-11 0-29 6-55 18-18 8-34 20-48 34-14 13-28 31-42 52-14 21-21 39-21 56l0 2c1 17 8 33 21 45 5 4 10 7 15 7 1 0 3-1 5-1 3 0 4 0 6 0 3 0 6-1 7-2 2-1 3-4 5-8 1-4 4-12 9-25 5-13 7-20 7-22 0-4-3-9-9-16-7-7-10-11-10-13 0-2 0-3 1-5 7-13 16-27 29-39 11-10 25-19 43-29 3-1 5-2 7-2 3 0 8 5 15 14 8 10 12 14 15 14z m-58-151c24 0 47 4 70 14 22 10 41 22 57 38 16 16 29 35 38 58 10 22 14 45 14 69 0 24-4 48-14 70-9 22-22 41-38 57-16 16-35 29-57 38-23 10-46 15-70 15-24 0-47-5-70-15-22-9-41-22-57-38-16-16-29-35-38-57-10-22-14-46-14-70 0-39 11-74 34-105l-23-67 69 22c30-19 63-29 99-29z m0 395c29 0 57-6 84-18 26-11 49-26 68-46 19-19 35-42 46-68 12-27 17-55 17-84 0-29-5-57-17-83-11-27-27-50-46-69-19-19-42-35-68-46-27-12-55-17-84-17-37 0-72 9-104 27l-119-39 38 116c-20 34-30 71-30 111 0 29 5 57 17 84 11 26 26 49 46 68 19 20 42 35 68 46 27 12 55 18 84 18z"/>
<glyph glyph-name="home" unicode="&#57345;" d="M421 224l0-137c0-10-9-18-19-18l-109 0 0 109-74 0 0-109-109 0c-10 0-19 8-19 18l0 137c0 1 1 1 1 2l164 135 164-135c1-1 1-1 1-2z m63 20l-17-21c-2-2-4-3-6-4l-1 0c-3 0-5 1-6 2l-198 165-198-165c-2-1-4-2-7-2-2 1-4 2-6 4l-17 21c-3 3-3 9 1 13l205 171c12 10 32 10 44 0l69-59 0 56c0 5 4 9 10 9l54 0c6 0 10-4 10-9l0-116 62-52c4-4 4-10 1-13z"/>
<glyph glyph-name="wordpress" unicode="&#57346;" d="M258 507c-100 0-194-59-238-153l122 0 0-13c-37 4-34-16-29-36l80-201 59 138-27 65c-10 17-10 36-50 35l0 12 179-1 0-14c-21-1-46 6-33-37l72-190 40 111c13 46 1 91-14 135-9 29-5 54 33 63-58 60-127 86-194 86z m243-175l-116-302c33 28 65 38 105 115 27 63 24 122 11 187z m-493-5c-11-89-10-115 18-188 36-69 64-84 105-111z m255-113l-86-207c60-17 114-15 164 4z"/>
<glyph glyph-name="vk" unicode="&#57347;" d="M0 380c3 2 6 4 10 5 4 1 8 2 11 2l4 0c3 0 6-1 10-1 6 0 10 0 13 0 2 0 7 0 16 1 5 0 9 0 12 0 4 0 7 0 10 0 6-1 10-2 13-4 2-1 4-2 6-5 2-3 4-6 5-8 1-3 3-6 5-11 1-4 3-7 4-9 10-23 24-46 39-68 1-1 2-3 3-5 2-2 3-4 4-5 1-1 2-3 4-5 1-2 3-4 4-5 1-1 3-2 5-3 1-1 3-2 4-3 2 0 3 0 5 0 8 2 12 18 13 50 1 5 1 10 1 14 0 21-2 35-7 43-1 3-3 6-6 8-2 2-6 3-10 5-5 1-8 2-10 4 4 8 11 13 21 15 10 3 23 4 40 4l22 0c0 0 4 0 11 0 8 0 11 0 12-1l9-3c0 0 3-1 8-3 6-3 8-5 5-6 3-5 4-11 5-18 0-2 0-4 0-6 0-5 0-13-1-22-1-11-2-19-2-21 0-7-1-13-1-20 0-5 0-10 1-16 1-12 5-21 13-25 2 0 5 1 7 1 2 1 4 3 6 5 2 2 4 4 5 5 1 1 3 3 5 7 3 3 4 5 4 6 13 17 27 40 40 68l4 10c0 0 1 3 5 11 3 7 5 10 5 8 0-2 2 0 6 5 4 2 10 3 16 3l4 0c5 0 12 0 19 0 9-1 16-1 20-1 2 0 6 0 11 0 6 0 10 1 14 1 4 0 8 0 12 0 5-1 9-2 11-3 2-1 4-3 6-5 1-2 1-4 1-6 0-8-5-20-15-36-4-8-9-16-14-22-5-7-11-15-19-25-8-9-13-16-16-19 0-1-2-3-6-8-3-4-5-8-7-10-1-2-3-5-5-9-2-4-2-8-2-11 0-3 1-5 1-7 1-2 3-4 5-6 2-2 3-4 4-5 1-1 2-3 5-6 3-2 5-4 5-4 20-18 36-35 47-49 12-15 17-25 17-32 0-9-7-15-21-17-8-1-15-2-23-2-5 0-11 1-18 2-5 0-10 0-15 0-7 0-14 0-19-2l-3 0c-18 3-37 17-58 40-1 1-3 4-7 9-4 4-7 8-9 10-3 2-6 5-10 7-4 3-8 4-11 3-7-1-11-5-13-12-2-7-3-16-4-25 0-10-2-17-4-21-3-6-14-10-33-10-8 0-17 1-28 2-21 2-41 8-59 17-17 9-32 18-42 28-11 10-22 23-34 39-29 37-57 82-83 135-1 2-2 5-5 10-2 4-3 8-5 10-1 2-2 6-3 10-2 5-3 9-4 12-1 3-1 7-1 11z"/>
<glyph glyph-name="youtube" unicode="&#57348;" d="M366 251c0 8-3 13-9 16l-146 91c-6 4-12 4-18 1-7-3-10-9-10-16l0-183c0-7 3-13 10-16 3-1 5-2 8-2 4 0 7 1 10 2l146 92c6 3 9 8 9 15z m146 0c0-18 0-32-1-43 0-10-1-23-2-38-1-16-3-30-6-42-3-14-10-26-20-36-10-9-22-15-36-16-41-5-105-7-191-7-86 0-150 2-191 7-14 1-26 7-36 16-11 10-17 22-20 36-3 12-5 26-6 42-2 15-3 28-2 38 0 11 0 25-1 43-1 19-1 33 1 43 1 11 1 24 2 39 0 16 2 30 6 42 3 14 10 26 20 36 10 9 22 15 36 16 41 5 105 7 191 7 86 0 150-2 191-7 14-1 26-7 36-16 11-10 17-22 20-36 3-12 5-26 6-42 2-15 2-28 2-39 0-10 1-24 1-43z"/>
<glyph glyph-name="yahoo" unicode="&#57349;" d="M0 361l2-7c1-2 2-3 3-4 1-1 2-1 2-2l1 0 7-4 41 0 107-128c3-3 4-6 4-9l0-72c0-2 0-3-1-4 0-1-1-2-2-2l-1 0c-28 0-45-1-53-1-2 0-4-2-4-4l0-20 193 0 0 21c0 1-1 1-1 2-1 0-1 1-2 1l-54 0c-3 0-4 1-4 5l0 75c0 1 0 2 1 3 1 1 1 2 2 3l1 1c3 2 36 33 98 92l50 0c2 0 4 1 7 3l6 7c1 2 2 4 2 7l0 5c0 1 0 1-1 2 0 0-1 0-1 0l-163 0-3-2c0-1 0-3 1-4 1-2 1-3 2-4l1-2 8-8 7-3 43 0-77-72-85 108 15 0c3 0 6 0 8 1l25 8c1 0 1 0 2 1 0 0 1 0 1 1 1 1 1 3 1 4l0 5c0 1 0 1-1 2 0 0-1 1-1 1l-183 0c-2-1-4-2-4-3z m443 41l69-3-31-211-23 1z m5-284l1 40 41-1-1-41z"/>
<glyph glyph-name="rss" unicode="&#57350;" d="M165 123c0-15-6-28-16-38-11-11-24-16-39-16-16 0-29 5-39 16-11 10-16 23-16 38 0 16 5 29 16 39 10 11 23 16 39 16 15 0 28-5 39-16 10-10 16-23 16-39z m146-35c0-5-1-9-5-13-3-4-8-6-13-6l-39 0c-5 0-9 1-12 4-4 3-5 7-6 12-4 44-21 81-52 112-32 31-69 49-113 53-4 0-8 2-11 6-3 3-5 7-5 12l0 38c0 6 2 10 6 14 3 3 7 5 12 5l2 0c30-3 59-10 87-23 28-13 52-31 74-52 22-22 39-46 52-74 13-28 21-58 23-88z m146 0c1-6-1-10-5-14-3-3-8-5-13-5l-41 0c-5 0-9 1-13 5-4 3-5 7-5 12-2 40-12 79-29 116-17 37-39 69-66 97-27 27-59 49-96 66-38 16-76 26-117 29-4 0-8 2-12 5-3 4-5 8-5 13l0 41c0 5 2 9 6 13 3 3 7 5 12 5l1 0c50-3 98-14 143-34 46-20 86-48 122-84 36-36 64-76 84-122 21-46 32-94 34-143z"/>
<glyph glyph-name="share" unicode="&#57351;" d="M384 175c21 0 39-8 54-22 15-15 23-33 23-55 0-21-8-39-23-54-15-15-33-23-54-23-21 0-39 8-54 23-15 15-23 33-23 54 0 2 0 4 1 7 0 3 0 5 0 6l-133 80c-14-11-30-16-47-16-21 0-39 7-54 22-15 15-23 33-23 54 0 22 8 40 23 55 15 15 33 22 54 22 18 0 34-5 47-15l133 80c0 1 0 3 0 6-1 3-1 5-1 6 0 21 8 39 23 54 15 15 33 23 54 23 21 0 39-8 54-22 15-15 23-33 23-55 0-21-8-39-23-54-15-15-33-23-54-23-18 0-33 6-46 17l-134-80c1-3 1-7 1-14 0-5 0-9-1-12l134-80c12 11 28 16 46 16z"/>
<glyph glyph-name="skype" unicode="&#57352;" d="M4 368c0 38 13 71 40 98 28 28 61 41 99 41 27 0 52-7 75-21 12 2 25 4 40 4 67 0 124-24 171-71 47-47 71-104 71-170 0-17-2-34-6-52 10-20 14-41 14-62 0-38-13-71-41-99-27-27-60-41-98-41-24 0-46 6-66 17-16-3-31-4-45-4-66 0-122 23-170 70-47 47-70 104-70 171 0 16 1 32 4 48-12 22-18 46-18 71z m113-188c0-14 5-28 15-43 24-36 66-54 126-54 17 0 34 2 50 6 16 4 31 10 44 18 14 7 25 18 34 32 9 14 13 30 13 48 0 20-5 37-15 51-10 13-23 23-38 29-15 6-32 12-49 17-17 5-33 9-49 12-15 3-28 7-37 13-9 6-14 14-15 23 0 11 6 19 18 25 13 5 26 8 38 8 14 0 25-2 34-6 9-4 15-9 20-15 4-7 7-13 10-18 3-6 8-11 13-16 6-4 12-6 20-6 9 0 18 3 25 9 7 7 10 15 10 24 0 9-3 18-8 28-10 18-26 32-48 41-23 8-46 12-71 12-16 0-31-1-46-4-14-3-28-8-42-15-14-7-25-17-33-29-8-12-12-27-13-44 0-23 7-41 21-55 13-13 30-23 49-29 20-6 40-11 59-15 20-4 37-9 50-17 13-7 20-17 20-30 0-10-3-18-11-25-8-7-17-11-26-14-9-2-19-3-29-3-13 0-24 2-33 5-9 4-15 9-20 14-4 6-8 12-11 18-3 7-6 13-9 18-3 6-7 10-12 14-5 4-11 5-19 5-10 0-18-3-25-9-6-6-10-13-10-23z"/>
<glyph glyph-name="soundcloud" unicode="&#57353;" d="M0 161c0-7 2-12 7-15 4-3 9-4 15-3 5 1 8 2 10 5 2 3 3 7 3 13l0 69c0 5-2 9-5 12-4 4-8 6-12 5-5 0-9-1-13-5-3-3-5-7-5-12z m55-30c0-5 1-8 5-10 3-3 7-4 12-4 6 0 10 1 13 4 3 2 5 5 5 10l0 161c0 5-2 9-5 12-3 4-7 5-13 6-5 0-9-2-12-6-3-3-5-7-5-12z m54-7c0-5 2-9 5-11 4-3 8-4 14-4 4 0 8 2 12 4 3 2 5 6 5 11l0 147c0 5-2 9-5 12-4 4-8 6-12 5-5 0-10-1-13-5-4-3-6-7-6-12z m55-1c0-9 6-14 18-14 11 0 18 5 18 14l0 238c0 13-4 21-12 23-6 1-11 0-16-5-5-4-8-10-8-18z m56-7l0 259c0 8 2 13 8 15 10 3 21 4 31 4 25 0 47-6 68-17 22-12 38-27 51-47 13-20 20-42 23-66 9 5 20 7 30 7 23 0 42-8 58-24 15-16 23-35 24-57 0-22-8-41-24-57-16-15-35-23-57-24l-208 1c-1 0-2 1-3 2 0 2-1 3-1 4z"/>
<glyph glyph-name="stackoverflow" unicode="&#57354;" d="M55-5l0 214 39-1-1-171 256 0 0 171 41 0 0-213z m63 113l201 0 0-43-201 0z m1 33l4 43 201-19-4-44z m10 88l12 42 195-54-12-42z m37 103l22 38 173-105-23-37z m85 105l36 26 117-164-35-26z m129 63l43 7 34-199-43-7z"/>
<glyph glyph-name="tumblr" unicode="&#57355;" d="M98 298l0 72c21 7 38 16 52 28 14 12 25 26 34 44 9 18 15 39 18 65l73 0 0-129 122 0 0-80-122 0 0-132c0-29 2-48 5-57 3-8 9-15 17-20 12-7 25-10 39-10 27 0 52 8 78 25l0-80c-22-11-42-18-60-22-17-5-37-7-57-7-23 0-44 3-63 9-18 7-34 15-45 26-12 10-21 22-27 35-5 11-7 29-7 53l0 180z"/>
<glyph glyph-name="twitter" unicode="&#57356;" d="M0 91c8-1 17-1 25-1 49 0 92 15 131 45-23 0-44 7-62 21-18 13-30 31-37 52 6-1 12-2 20-2 10 0 19 1 28 4-25 5-45 17-60 36-16 19-24 42-25 67l0 1c15-8 31-13 48-13-14 9-26 22-34 37-8 16-12 33-13 50 0 19 5 37 15 53 26-32 58-58 95-77 38-19 78-30 121-33-2 9-3 18-3 24 0 29 11 54 31 75 21 20 45 30 75 30 30 0 55-11 76-33 24 5 46 14 67 26-8-25-23-45-46-58 20 2 40 8 60 16-14-21-31-39-52-54l0-14c0-28-4-56-12-84-8-28-21-55-38-81-17-26-37-48-60-68-23-20-51-36-84-48-32-12-67-18-105-18-58 0-112 16-161 47z"/>
<glyph glyph-name="vimeo" unicode="&#57357;" d="M0 354c16 19 33 36 49 52 17 15 31 26 43 34 12 9 23 15 32 20 9 4 17 8 22 9l7 2c4 0 7 1 11 1 6 0 11-1 16-3 7-3 14-8 19-15 5-7 9-15 13-25 3-9 6-20 9-32 3-12 5-24 7-35 2-11 4-22 6-35 2-12 4-23 6-32 10-37 18-63 23-79 6-15 13-23 19-23 7 0 17 8 30 25 13 16 26 39 41 67 8 14 12 28 12 41 0 4 0 7-1 10-3 15-10 25-23 29-3 1-7 2-11 2-10 0-22-4-37-12 7 39 27 70 60 94 26 17 51 26 78 26 4 0 7 0 11 0 30-3 51-16 62-40 5-12 8-25 8-40 0-8-1-17-3-27-5-30-16-61-31-93-15-31-32-59-50-83-19-24-38-47-60-69-21-23-39-40-54-53-16-13-30-23-41-31-13-7-24-10-35-10-11 0-21 3-31 9-10 6-19 13-25 22-7 8-12 16-17 25-6 11-20 56-44 134-23 77-37 119-43 125 0 0-1 1-2 1-1 1-2 2-5 3-3 0-7 0-11 0-4-1-10-3-17-7-7-3-14-8-22-14z"/>
<glyph glyph-name="windows" unicode="&#57358;" d="M214 220l0-186-195 27 0 159z m0 212l0-188-195 0 0 162z m280-212l0-225-259 36 0 189z m0 251l0-227-259 0 0 191z"/>
<glyph glyph-name="stumbleupon" unicode="&#57359;" d="M0 172l0 70 88 0 0-70c0-7 2-13 7-18 6-6 12-8 20-9 7 0 14 3 19 8 6 6 8 12 8 19l0 166c0 30 11 56 34 78 23 22 49 32 80 32 31 0 58-11 81-32 23-22 34-48 34-79l0-36-53-16-35 17 0 31c0 8-2 14-8 19-5 5-11 8-19 8-7 0-14-3-19-8-5-5-8-11-8-19l0-163c0-31-11-58-34-80-22-22-49-33-80-33-32 0-59 11-81 33-23 22-34 49-34 82z m283-2l0 72 35-16 53 15 0-72c0-7 2-14 7-19 6-5 12-8 20-8 7 0 13 2 19 8 5 6 8 12 8 19l0 73 87 0 0-70c0-32-11-59-33-81-22-23-49-34-81-34-32 0-59 11-81 33-22 22-33 49-34 80z"/>
<glyph glyph-name="steam" unicode="&#57360;" d="M0 299c0 15 5 27 15 37 10 10 22 15 37 15 12 0 23-3 32-11 10-8 16-17 18-29l196-79c9 5 17 7 27 7 0 0 1 0 3 0 1 0 2 0 2 0l43 62c0 19 7 35 21 49 13 13 30 20 49 20 19 0 35-7 49-21 13-13 20-30 20-49 0-19-7-36-20-49-14-14-30-20-49-20l-67-49c-1-13-7-24-16-33-10-9-22-13-35-14-13 0-24 4-33 12-9 8-15 18-18 29l-196 79c-8-5-17-8-26-8-15 0-27 6-37 16-10 10-15 22-15 36z m14 0c0-10 3-19 11-26 8-7 16-11 27-12 2 0 5 1 8 1l-16 7 0 0c-8 3-13 9-16 16-1 4-2 8-2 11 0 4 1 8 2 12 3 8 8 13 16 16 4 2 8 3 12 3 3 0 7-1 10-2l0 0 19-8c-7 14-18 21-33 21-11 0-20-4-27-11-7-8-11-17-11-28z m277-130c7-13 19-20 34-20 10 0 19 4 27 11 7 8 11 17 11 27 0 11-4 20-11 27-7 8-16 11-27 11-4 0-7 0-8-1l15-6c8-3 14-8 17-16 2-4 3-8 3-12 0-4-1-7-3-11-3-8-8-14-16-17-4-2-8-2-12-2-3 0-7 0-11 2-2 1-5 2-9 4-5 2-8 3-10 3z m105 131c0-13 5-24 14-33 9-9 20-13 33-13 13 0 24 4 33 13 9 9 14 20 14 33 0 13-5 24-14 33-9 9-20 14-33 14-13 0-24-5-33-14-9-9-14-20-14-33z m10 1c0-11 4-20 11-27 7-7 16-11 26-11 10 0 19 4 26 11 8 7 11 16 11 27 0 10-3 18-11 26-7 7-16 11-26 11-10 0-19-4-26-11-7-8-11-16-11-26z"/>
<glyph glyph-name="spotify" unicode="&#57361;" d="M0 251c0 47 11 90 34 129 23 39 54 70 93 93 40 23 83 34 129 34 46 0 89-11 129-34 39-23 70-54 93-93 23-39 34-82 34-129 0-34-6-67-19-98-13-31-32-58-55-82-21 25-45 45-74 59-29 14-61 21-94 21-37 0-71-9-102-26-31-16-57-39-77-69-29 25-51 54-67 87-16 34-24 70-24 108z m84 74c0-6 2-11 6-15 4-4 9-6 15-6 3 0 4 0 5 0 49 20 100 30 153 30 52 0 103-10 152-30 1 0 1 0 2 0 1 0 2 0 3 0 6 0 11 2 15 6 5 5 7 10 6 15 0 9-4 15-11 19-55 22-110 32-167 32-58 0-115-11-169-32-7-5-10-11-10-19z m24-76l3-8c2-5 6-7 11-7 1 0 3 0 5 1 43 19 89 28 136 28 47 0 93-9 136-28 2-1 3-1 4-1 5 0 9 2 12 6l2 9c0 4-1 8-5 11-47 21-97 31-149 31-53 0-103-10-150-31-4-4-5-7-5-11z m24-74c4-8 9-11 16-8 37 17 75 26 115 26 38 0 75-8 112-25 8-4 14-2 18 7 1 4 1 8 0 11-2 4-4 6-7 8-37 18-78 27-123 27-44 0-86-9-125-28-7-3-9-9-6-18z m31-162c13 16 29 29 47 39 19 9 39 14 60 14 39 0 72-15 99-44-36-18-73-27-113-27-32 0-63 6-93 18z"/>
<glyph glyph-name="linkedin" unicode="&#57362;" d="M0 439c0 17 6 31 17 41 12 11 27 17 45 16 18 0 33-5 44-16 12-10 18-25 18-42 0-16-6-29-17-40-12-11-27-16-46-16l0 0c-18 0-33 5-44 16-11 11-17 25-17 41z m6-432l0 330 110 0 0-330z m171 0l110 0 0 184c0 12 1 21 4 27 4 11 11 21 21 29 9 8 21 11 35 11 37 0 55-25 55-75l0-176 110 0 0 189c0 49-12 86-35 111-23 26-53 38-91 38-43 0-76-18-99-55l0-1-1 0 1 1 0 47-110 0c1-10 1-43 1-98 0-55 0-133-1-232z"/>
<glyph glyph-name="googleplus" unicode="&#57363;" d="M450 241l56 0 0 39-56 0 0 56-40 0 0-56-57 0 0-39 57 0 0-55 40 0z m-289-147c98 0 154 71 154 158 0 11-1 22-3 32l-151 0 0-63 86 0c-10-40-45-62-86-62-53 0-94 42-94 93 0 52 41 94 94 94 24 0 44-7 61-22l47 46c-29 26-66 40-108 40-89 0-161-70-161-158 0-87 72-158 161-158z"/>
<glyph glyph-name="blogger" unicode="&#57364;" d="M284 507l-154 0c-65-9-121-50-126-118-1-7-1-13-1-19-1-31 0-63 0-93 0-50-1-89 0-125 0-107 63-157 178-155 28 0 61 0 98-1 37 0 66-2 91 1 113 16 135 92 140 154l0 70c-3 71-56 91-100 92 5 18 6 42 2 75-5 64-50 113-128 119z m-129-95l126 0c69-10 66-84 0-95l-126 0c-69 9-66 84 0 95z m-28-207l230-1c70-9 70-94 3-104l-231 1c-71 9-70 93-2 104z"/>
<glyph glyph-name="digg" unicode="&#57365;" d="M0 162l0 169c0 4 2 6 6 6l80 0 0 59c0 4 2 7 6 7l45 0 0-235c0-4-2-6-6-6z m50 37l30 0c4 0 6 3 6 7l0 94-30 0c-4 0-6-2-6-7z m102-37l0 169c0 4 2 6 6 6l45 0 0-169c0-4-2-6-5-6z m0 203l0 31c0 4 2 7 6 7l45 0 0-32c0-4-2-6-5-6z m68-203l0 169c0 4 2 6 6 6l132 0 0-230c0-4-2-6-6-6l-132 0 1 32c0 4 2 6 5 6l81 0 0 23z m51 37l30 0c4 0 6 3 6 7l0 94-31 0c-4 0-5-2-5-7z m104-66c0 4 2 6 6 6l80 0 0 23-86 0 0 169c0 4 2 6 6 6l131 0 0-230c0-4-2-6-6-6l-131 0z m50 66l30 0c4 0 6 3 6 7l0 94-30 0c-4 0-6-2-6-7z"/>
<glyph glyph-name="dribbble" unicode="&#57366;" d="M0 251c0 47 11 90 34 129 23 39 54 70 93 93 40 23 83 34 129 34 46 0 89-11 129-34 39-23 70-54 93-93 23-39 34-82 34-129 0-46-11-89-34-128-23-39-54-70-93-93-40-23-83-35-129-35-46 0-89 12-129 35-39 23-70 54-93 93-23 39-34 82-34 128z m42 0c0-53 18-100 54-140 17 32 43 62 78 91 36 29 70 48 104 55-5 12-10 23-15 32-59-18-122-28-190-28-14 0-24 0-30 1 0-2 0-3 0-5 0-3 0-4-1-6z m7 53c8-1 19-1 33-1 57 0 112 8 163 23-26 46-55 85-86 115-27-13-50-32-69-56-19-25-33-51-41-81z m76-221c39-30 83-45 131-45 25 0 50 5 75 14-7 59-20 115-40 170-31-7-63-24-94-52-32-28-56-57-72-87z m79 375c30-31 58-70 83-116 47 19 82 44 105 74-39 33-85 49-136 49-17 0-35-2-52-7z m102-153c5-11 11-25 17-41 25 2 53 3 83 3 21 0 42 0 62-1-2 46-19 87-50 124-22-33-59-62-112-85z m30-77c17-51 29-103 35-156 27 18 49 40 66 67 17 28 28 57 31 89-25 2-48 2-68 2-19 0-40 0-64-2z"/>
<glyph glyph-name="evernote" unicode="&#57367;" d="M42 349c0 14 2 24 7 30 4 5 8 8 14 11 6 3 14 4 24 4l48 0c5 0 9 2 13 6 4 4 6 8 6 13 0 7 0 15-1 23l0 30c0 8 2 16 7 22 5 8 13 13 25 16 4 2 13 3 27 3l10 0c20 0 37-3 50-8 13-6 21-16 23-32 9 0 17 0 25 0 18 0 33 0 45-2 33-4 55-8 66-12 15-5 24-16 28-35 3-18 6-54 9-107 1-31 2-56 2-75 0-15 0-28-1-37-6-59-13-102-22-130-5-14-10-26-15-35-4-9-9-17-13-22-5-5-11-9-19-11-9-3-16-5-22-5-6 0-16-1-30-1-37 0-62 5-74 13-13 9-19 27-20 55 0 15 2 28 5 37 4 9 9 15 17 19 8 3 16 5 24 6 5 1 12 1 20 1l15 0c1 0 2 0 3-1 0 0 0-1 0-2-1-1-1-3-1-4 0-2-1-3-2-6-1-2-1-4-1-6 0-4 0-7 1-10 1-3 1-5 1-6-1-1-2-1-4-1l-10 0c0 0-2 0-5 0-4 0-5-1-5-1 0-1-2-1-5-1-2 0-4-1-4-2 0-2-1-3-3-4-2 0-2-2-2-4 1-3 1-5 0-6 0-5 0-9 2-12 1-3 3-6 4-7 1-2 4-3 9-4 5 0 9-1 11-1l17 0c19 0 32 2 37 7 6 4 8 15 8 33 0 26-3 43-9 52-6 10-16 15-29 16-30 3-50 7-61 10-18 7-27 28-27 61 0 1 0 1-1 1-1 0-1 0-2-1 0-23-3-43-9-61l-4-12c-4-9-10-13-19-14l-3 0c-8 0-17 2-28 4-43 6-77 14-101 24-8 4-15 11-19 21-6 12-12 34-18 66-6 32-10 55-12 68-2 11-2 20-2 26z m3 61l0 1 94 92c0 1 0 1 0 1l-2-3c-3-7-5-15-5-25 0-7 0-25 0-53 0-3-1-5-5-5l-47 0c-12 0-22-2-31-5-1-1-3-2-4-3z m291-148c7 1 15 1 23 1 16 0 29-3 42-9 0 29-11 44-32 45l-1 0c-10 0-18-4-23-11-5-7-8-16-9-26z"/>
<glyph glyph-name="facebook" unicode="&#57368;" d="M384 402l-73 0c-4 0-9-3-13-8-3-5-5-11-5-19l0-52 91 0 0-76-91 0 0-226-87 0 0 226-78 0 0 76 78 0 0 44c0 32 10 59 30 82 20 22 45 33 75 33l73 0z"/>
<glyph glyph-name="pinterest" unicode="&#57369;" d="M221 170c-9-45-19-81-30-109-11-27-27-49-49-66-2 26-3 46-4 62 0 16 2 34 6 56 4 22 8 40 11 53 3 14 8 31 13 51 6 20 10 37 13 51-9 18-12 37-10 59 2 22 10 40 25 54 14 15 31 18 50 11 14-6 21-16 23-30 1-15-1-31-7-49-6-18-11-35-16-53-5-17-6-33-2-46 3-13 14-22 32-25 23-5 44 2 62 19 18 18 31 41 38 67 7 27 9 55 5 84-3 29-12 50-27 65-21 22-47 34-78 36-30 2-58-3-83-17-25-13-46-33-61-59-16-27-22-56-17-88 1-7 5-16 11-26 7-10 10-18 11-24 1-6-2-17-9-35-49 12-73 51-71 118 1 47 19 87 54 120 34 33 74 52 119 57 56 7 105-3 148-29 43-25 68-63 74-112 9-60-2-114-34-162-31-48-74-70-129-66-7 0-14 2-21 4-7 3-12 5-16 7-3 2-8 6-16 11-7 5-12 8-15 11z"/>
<glyph glyph-name="path" unicode="&#57370;" d="M18 310c1 59 24 106 67 143 46 35 103 54 171 54 71-1 129-19 172-53 21-18 37-40 49-65 11-26 17-52 17-79-1-56-23-101-64-134-43-34-100-52-169-53l0-30c0-20-6-37-17-54-11-16-25-28-41-35-11-6-24-9-37-9-16 0-32 5-48 13l0 88c14-10 27-13 39-9 12 4 17 13 17 25l0 245 87 0 0-153c20 0 39 2 57 6 27 7 49 17 64 31 20 19 30 42 30 69 0 40-16 70-49 90-30 18-66 27-107 27-43-2-79-11-108-29-15-10-27-22-35-38-8-16-13-32-13-50 3-36 11-60 24-72l-55-59c-16 15-29 36-38 62-8 26-12 50-13 69z"/>
<glyph glyph-name="paypal" unicode="&#57371;" d="M431 385l4-3c13-7 23-18 31-31 6-13 10-30 10-49 0-45-19-81-57-108-36-27-88-41-156-41l-16 0c-5 0-10-2-16-6-5-4-9-9-10-14l-19-80c-4-15-13-22-26-22l-54 0c-7 0-11 2-15 7-3 4-4 9-3 15l3 12 35 0c5 0 11 2 16 7 6 4 9 9 11 15l18 79c3 14 12 21 27 21l15 0c67 0 119 14 157 41 37 28 56 64 56 107 0 20-4 36-11 50z m-297-265c-1-5-4-10-9-14-6-5-11-7-17-7l-55 0c-6 0-11 2-14 7-3 4-4 9-2 14l76 331c4 14 13 21 27 21l115 0c26 0 48-2 64-5 19-4 35-9 48-17 13-8 22-19 30-32 7-13 10-29 10-49 0-44-19-80-56-107-36-28-88-41-156-41l-16 0c-6 0-11-2-17-6-5-5-8-9-9-15z m45 192c-2-6 0-10 3-14 3-5 8-7 13-7l15 0c29 0 52 7 68 19 17 11 25 28 25 50 0 15-5 26-16 33-11 7-27 10-48 10l-17 0c-14 0-23-7-27-21z"/>
<glyph glyph-name="reddit" unicode="&#57372;" d="M0 253c0 18 7 33 21 46 14 12 30 18 48 18 17 0 32-5 44-15l3 0c38 23 85 35 142 35l2 1 30 114 103-15c0-1 0-1 0-1 1 0 1 0 0 1 1 0 3 2 6 6 2 5 4 7 5 8 10 9 22 14 35 14 14 0 26-5 36-14 9-9 14-21 14-35-1-14-5-26-14-35-9-10-21-15-36-15-16 0-28 5-37 16-8 11-12 25-12 41-1 0-15 2-42 6-27 3-42 6-46 7l-2 0c0-1-2-8-6-23-4-14-9-30-13-46-5-17-7-26-8-27l0-2 2-1c21 0 42-3 63-9 22-5 40-14 55-24l2-1c0 0 0 0 1 0 0 0 0 0 0 1 7 5 13 8 16 10 3 2 7 4 12 6 5 1 11 2 18 2 20 0 36-6 50-20 13-14 20-30 20-50 0-13-4-25-11-36-7-11-17-20-30-26 0-55-37-98-110-129-12-5-20-8-24-9-9-3-22-6-39-8-16-3-30-4-39-4-34 0-67 5-98 15-1 0-11 6-31 16-27 14-48 31-65 49-16 18-24 41-24 66l-2 0c-10 5-18 12-25 22l-4 5c-4 7-7 14-8 19-1 6-2 13-2 21z m14-5c0-18 9-34 25-47 1 17 8 33 20 49 12 16 27 31 43 43-11 7-22 11-35 11-14 0-26-6-36-17-11-11-16-24-17-39z m44-62c0-15 4-30 13-44 9-14 20-26 34-36 14-10 28-18 43-25 15-8 30-12 45-15 21-4 42-6 62-6 35 0 68 6 99 17 31 11 57 28 79 52l-2 0c9 11 15 21 19 29 3 9 5 19 5 31 0 15-4 30-11 44-7 14-17 25-30 35-12 10-25 19-39 26-13 8-28 13-42 16-24 7-50 10-77 10-21 0-43-2-64-7-22-6-43-13-64-23-21-11-38-25-51-42-13-18-19-39-19-62z m79 31c0 11 3 19 10 26 6 6 14 9 25 9 10 0 19-3 26-9 7-6 11-15 11-26 0-10-4-18-11-25-7-7-16-10-26-10-11 0-19 3-25 10-7 7-10 15-10 25z m15-69l19 0c7-13 18-23 34-29 15-7 31-10 47-10 16 0 32 3 47 10 14 7 26 16 35 29l18 0c-7-18-20-31-40-41-19-10-39-15-60-15-20 0-40 5-60 15-20 10-33 24-40 41z m143 69c0 11 3 20 10 26 6 6 15 9 26 9 9 0 17-3 24-10 7-7 10-15 10-25 0-9-3-18-10-25-7-7-15-10-24-10-11 0-19 3-26 10-6 7-10 15-10 25z m108 199c0-10 4-18 11-25 7-7 15-11 25-11 11 0 19 4 25 11 7 7 10 15 10 25 0 10-3 18-10 25-7 7-15 10-25 10-9 0-18-3-25-10-7-7-11-15-11-25z m6-119c16-10 29-23 41-39 11-16 19-33 23-51 17 12 25 26 25 41 0 16-5 30-14 42-10 12-24 18-40 18-13 0-24-4-35-11z"/>
<glyph glyph-name="instagram" unicode="&#57373;" d="M329 251c0 41-33 74-73 74-40 0-73-33-73-74 0-40 33-73 73-73 40 0 73 33 73 73z m40 0c0-62-51-112-113-112-62 0-113 50-113 112 0 63 51 113 113 113 62 0 113-50 113-113z m30 118c0-15-11-27-26-27-14 0-26 12-26 27 0 14 12 26 26 26 15 0 26-12 26-26z m-143 62c-32 0-101 3-129-8-10-4-18-9-26-17-7-8-12-15-16-25-12-29-9-98-9-130 0-32-3-100 9-129 4-10 9-17 16-25 8-8 16-13 26-17 28-11 97-9 129-9 32 0 101-2 129 9 10 4 18 9 26 17 7 8 12 15 16 25 12 29 9 97 9 129 0 32 3 101-9 130-4 10-9 17-16 25-8 8-16 13-26 17-28 11-97 8-129 8z m219-180c0-30 1-60-1-90-2-35-10-66-35-92-26-26-57-34-92-36-31-1-61-1-91-1-30 0-60 0-91 1-35 2-66 10-92 36-25 26-33 57-35 92-2 30-1 60-1 90 0 31-1 61 1 91 2 35 10 66 35 92 26 26 57 34 92 35 31 2 61 2 91 2 30 0 60 0 91-2 35-1 66-9 92-35 25-26 33-57 35-92 2-30 1-60 1-91z"/>
<glyph glyph-name="mail-1" unicode="&#57374;" d="M326 229l132-137-404 0 133 135 69-65z m-264 182l389 0-195-186z m289-159l132 124 0-260z m-322-136l0 260 133-124z"/>
<glyph glyph-name="logout" unicode="&#57375;" d="M201 96c0-1 0-3 1-6 0-3 0-5 0-7-1-2-1-4-1-7-1-3-1-5-3-6-1-1-3-1-6-1l-91 0c-23 0-42 8-58 24-16 16-24 35-24 58l0 201c0 23 8 42 24 58 16 16 35 24 58 24l91 0c3 0 5-1 7-2 1-2 2-4 2-7 0-1 0-3 1-6 0-3 0-5 0-7-1-2-1-5-1-7-1-2-1-4-3-6-1-1-3-1-6-1l-91 0c-13 0-23-5-32-14-9-9-14-20-14-32l0-201c0-13 4-23 14-32 9-9 20-14 32-14l89 0c0 0 1 0 3 0 2 0 3 0 4-1 0-1 1-2 2-2 1 0 1 0 2-2 0-2 0-3 0-4z m266 155c0-4-2-9-6-12l-155-156c-4-3-8-5-13-5-5 0-9 2-13 5-4 3-5 8-5 13l0 82-128 0c-5 0-10 2-13 6-4 4-6 8-6 13l0 109c0 5 2 10 6 13 3 3 8 5 13 6l128 0 0 82c0 5 1 9 5 13 4 4 8 5 13 5 5 0 9-2 13-5l155-156c4-3 6-7 6-13z"/>
<glyph glyph-name="commenting" unicode="&#57376;" d="M183 251c0 11-4 19-11 26-7 7-16 11-26 11-10 0-18-4-26-11-7-7-10-15-10-26 0-10 3-18 10-25 8-8 16-11 26-11 10 0 19 3 26 11 7 7 11 15 11 25z m110 0c0 11-4 19-11 26-7 7-16 11-26 11-10 0-19-4-26-11-7-7-11-15-11-26 0-10 4-18 11-25 7-8 16-11 26-11 10 0 19 3 26 11 7 7 11 15 11 25z m109 0c0 11-3 19-10 26-8 7-16 11-26 11-10 0-19-4-26-11-7-7-11-15-11-26 0-10 4-18 11-25 7-8 16-11 26-11 10 0 18 3 26 11 7 7 10 15 10 25z m110 0c0-33-11-63-34-91-23-29-54-51-93-67-40-16-83-24-129-24-21 0-41 1-60 5-33-33-75-55-125-66-9-2-18-3-24-3-2-1-5 0-6 1-2 2-4 3-4 5-1 3 1 7 6 11 1 1 3 3 6 6 4 3 6 6 8 7 1 1 3 4 6 7 3 4 6 7 7 9 2 3 4 6 6 11 2 4 4 9 6 13 1 5 2 10 4 17 1 6 2 13 3 21-27 17-49 37-65 61-16 25-24 50-24 77 0 34 11 64 34 92 23 28 54 51 93 67 40 16 83 24 129 24 46 0 89-8 129-24 39-16 70-39 93-67 23-28 34-58 34-92z"/>
<glyph glyph-name="mobile" unicode="&#57377;" d="M475 125c0 9-7 16-16 17l-406 0c-9-1-16-8-16-17l0-10c0-9 7-17 16-17l406 0c9 0 16 8 16 17l0 10z m0 132c0 9-7 16-16 16l-406 0c-9 0-16-7-16-16l0-11c0-9 7-16 16-16l406 0c9 0 16 7 16 16l0 11z m0 131c0 9-7 16-16 16l-406 0c-9 0-16-7-16-16l0-10c0-9 7-17 16-17l406 0c9 0 16 8 16 17l0 10z"/>
<glyph glyph-name="star-half" unicode="&#57378;" d="M357 234l74 71-102 15-19 3-8 18-46 91 0-275 17-8 91-49-17 102-4 19z m129 75l-103-101 24-143c1-6 1-11-1-15-2-3-6-5-10-5-3 0-7 1-11 3l-129 68-128-68c-4-2-8-3-12-3-4 0-7 1-9 5-3 4-3 9-2 15l25 143-104 101c-6 6-9 12-7 17 2 5 7 8 15 10l144 20 64 130c4 8 9 12 14 12 6 0 10-4 14-12l64-130 144-20c8-1 13-5 15-10 2-6 0-11-7-17z"/>
<glyph glyph-name="star-empty" unicode="&#57379;" d="M343 221l88 84-121 18-54 109-54-109-121-18 88-84-21-121 108 57 108-57z m151 102c0-5-2-9-8-14l-103-101 24-143c0-1 1-3 1-6 0-10-4-14-12-14-4 0-7 1-11 3l-129 68-128-68c-4-2-8-3-12-3-3 0-6 1-8 4-2 3-3 7-3 10 0 1 0 3 0 6l25 143-104 101c-5 5-7 9-7 14 0 7 5 11 15 13l144 20 64 130c4 8 9 12 14 12 6 0 10-4 14-12l64-130 144-20c11-2 16-6 16-13z"/>
<glyph glyph-name="grooveshark" unicode="&#57380;" d="M0 251c0 47 11 90 34 129 23 39 54 70 93 93 40 23 83 34 129 34 46 0 89-11 129-34 39-23 70-54 93-93 23-39 34-82 34-129 0-46-11-89-34-128-23-39-54-70-93-93-40-23-83-35-129-35-46 0-89 12-129 35-39 23-70 54-93 93-23 39-34 82-34 128z m66 0c0-22 6-35 18-39 2-1 5-1 9-2 15 0 29 6 44 20 14 13 24 28 29 47 9 26 11 60 6 102-1 4-2 7-2 9-1 2-1 3 0 4 1 1 3 1 7 0 13-4 26-9 40-15 16-7 33-19 52-36 16-13 31-28 45-46 11-13 25-31 41-53 14-19 29-32 45-39 10-4 18-5 24-4 7 1 12 5 15 10 4 6 6 13 8 19 2 7 2 15 2 23 0 17-2 33-6 50-1 4-3 8-4 14-5 15-12 29-21 43-18 27-41 48-69 63-29 16-59 23-91 23-23 0-44-3-64-11-28-9-52-25-72-45-21-21-36-45-46-73 0-2-1-4-2-7-1-3-2-6-2-7-4-17-6-34-6-50z"/>
<glyph glyph-name="myspace" unicode="&#57381;" d="M0 169l0 165 66 0 0-97 380 0 0 97 66 0 0-165z"/>
<glyph glyph-name="lastfm" unicode="&#57382;" d="M0 253c0 42 15 78 45 107 29 30 65 45 108 45 31 0 60-8 84-24 25-16 44-40 57-70 3-9 20-48 49-115 6-13 11-22 15-29 4-6 11-12 19-17 8-5 18-8 30-8l3 0c17 0 31 4 43 13 11 10 17 23 18 37 0 7-1 13-3 18-2 4-6 9-12 12-5 4-10 7-15 9-5 2-13 4-23 7-32 11-55 22-69 35-14 13-22 30-22 52 0 23 8 42 23 56 15 14 35 21 60 21 32 0 57-15 73-44l-32-17c-11 16-26 24-43 24-12 0-22-4-29-11-8-7-12-16-12-28 0-3 0-6 1-9 0-3 1-6 3-8 2-3 3-5 5-6 1-2 3-4 6-6 3-2 6-3 8-4 2-1 5-3 9-4 5-2 8-3 11-4 2-1 6-2 12-4 5-1 9-3 13-4 27-9 47-20 59-32 12-12 18-30 18-54 0-26-10-47-29-64-20-17-43-25-72-25l-1 0c-26 0-46 6-62 18-16 12-29 30-40 54l-5 13-49 111c-9 19-22 35-40 47-18 12-39 19-61 19-31 0-57-11-79-33-21-21-32-48-32-78-1-31 10-57 32-79 22-21 49-32 79-32 21 0 40 5 57 16 18 11 31 26 41 43l19-45c-14-18-31-31-52-41-20-10-42-15-65-15-43 0-79 15-108 45-30 29-45 65-45 108z"/>
<glyph glyph-name="forrst" unicode="&#57383;" d="M43-5l213 512 214-512-189 0 0 70 87 43-7 28-80-40 0 34 50 27-7 29-43-23 0 44-48 0 0-80-44 30-8-33 52-35 0-94z"/>
<glyph glyph-name="flickr" unicode="&#57384;" d="M126 149c-27 0-51 10-71 30-20 20-29 44-29 72 0 29 9 53 29 73 19 20 43 30 71 30 28 0 52-10 71-30 19-20 29-44 29-73 0-28-10-52-29-72-20-20-44-30-71-30z m260 0c-27 0-51 10-71 30-20 20-29 44-29 72 0 29 9 53 29 73 19 20 43 30 71 30 28 0 52-10 71-30 20-20 29-44 29-73 0-28-10-52-29-72-20-20-44-30-71-30z"/>
<glyph glyph-name="deviantart" unicode="&#57385;" d="M186 357l3-174-106 0c12 51 35 91 104 101l-1 23c-150-20-182-102-184-162l242 1 0 145c73 2 164-1 189-107l-108 1 0 74c-19 6-36 6-54 5l-1-118 240 0c3 118-102 171-266 168l0 43z"/>
<glyph glyph-name="delicious" unicode="&#57386;" d="M0-2l0 254 254 0 0-254z m258 253l0 254 254 0 0-254z"/>
<glyph glyph-name="behance" unicode="&#57387;" d="M207 270c19 0 33-7 43-21 10-13 16-27 16-41l0-20c0-19-3-36-10-49-7-14-15-24-26-30-10-6-20-11-30-14-10-3-18-5-25-5l-175 0 0 330 165 0c26 0 48-7 65-22 17-15 25-37 25-66 0-17-4-31-12-41-8-11-16-17-24-19z m-134 92l0-74 87 0c9 0 15 3 20 8 5 5 7 16 7 31 0 10-1 18-5 24-4 6-8 9-12 10l-5 1z m88-213c25 0 38 14 38 43 0 14-3 24-9 32-5 7-10 11-16 12l-9 1-92 0 0-88z m239 187c24 0 44-5 61-14 16-10 28-22 34-36 7-14 11-28 14-42 3-14 4-26 3-36l-1-15-164 0c0-18 5-32 14-42 9-9 19-14 28-14l13-1c16 0 28 3 37 8 8 6 13 12 14 17l1 10 55 0c0-28-9-50-27-64-18-14-36-22-54-22l-28-2c-24 0-45 5-62 13-17 9-29 19-37 32-7 13-13 25-17 37-4 13-5 23-5 31l0 13c0 4 0 8 0 14 0 6 3 16 7 31 5 15 11 27 19 38 7 11 20 21 37 31 16 9 36 13 58 13z m51-99c0 1-1 3-1 6 0 2-1 6-3 12-2 6-4 11-7 15-2 5-7 9-14 13-7 3-15 5-24 5-14 0-26-4-35-13-10-8-16-17-18-26l-3-12z m13 164l0-40-131 0 0 40z"/>
<glyph glyph-name="mail" unicode="&#57388;" d="M476 78l0 219c-6-7-13-13-20-19-51-39-92-71-122-96-10-8-18-15-24-20-6-4-14-9-24-13-11-5-20-7-29-7l-2 0c-8 0-18 2-29 7-10 4-18 9-24 13-6 5-14 12-24 20-30 25-70 57-122 96-7 6-14 12-20 19l0-219c0-3 1-5 3-7 2-2 5-2 7-2l420 0c3 0 5 0 7 2 1 2 2 4 3 7z m0 300l0 7c0 0-1 1-1 4 0 2 0 3 0 3 0 0-1 1-2 3-1 1-2 2-2 2-1-1-3 0-5 1l-420 0c-3 0-5-1-7-3-1-2-2-4-3-6 0-32 14-60 42-82 37-29 75-59 115-90 1-1 5-4 10-9 6-4 10-8 13-10 3-3 7-6 13-10 5-3 10-6 14-7 4-2 8-2 12-3l2 0c3 0 7 1 12 3 4 1 9 4 14 7 5 4 10 7 13 10 3 2 8 6 13 10 5 5 8 8 10 9 40 31 78 61 115 90 10 8 19 20 28 34 9 14 14 26 14 37z m36 11l0-311c0-13-4-24-13-32-9-9-20-14-33-14l-420 0c-13 0-23 4-33 14-9 9-13 20-13 32l0 311c0 12 4 23 13 32 9 9 20 13 33 13l420 0c13 0 24-4 33-13 9-9 13-20 13-32z"/>
<glyph glyph-name="star" unicode="&#57389;" d="M494 323c0-5-2-9-8-14l-103-101 24-143c0-1 1-3 1-6 0-4-1-7-3-10-2-3-5-4-9-4-4 0-7 1-11 3l-129 68-128-68c-4-2-8-3-12-3-3 0-6 1-8 4-2 3-3 7-3 10 0 1 0 3 0 6l25 143-104 101c-5 5-7 9-7 14 0 7 5 11 15 13l144 20 64 130c4 8 9 12 14 12 6 0 10-4 14-12l64-130 144-20c11-2 16-6 16-13z"/>
<glyph glyph-name="user" unicode="&#57390;" d="M6 11c0 3 0 7 1 12 0 5 2 12 5 23 4 10 8 18 13 24 6 6 17 12 34 19 16 7 35 14 55 22 21 7 36 13 46 18 12 6 22 15 28 28 7 12 10 24 11 37 0 9-6 20-16 32-7 7-12 17-16 30-15 6-23 18-23 37 0 14 3 24 8 30-1 9-3 23-5 41 0 3 0 6-1 11 0 4 0 12 1 22 1 11 4 20 8 27 6 12 15 19 24 24 10 4 18 4 24 2 0 0 1 0 1 0 0 2 1 4 2 7 1 2 3 6 7 11 4 5 8 8 13 10 2 2 7 3 12 3 6 1 14 1 22 1 9-1 18-2 27-4 9-3 18-6 28-11 9-5 18-11 25-19 7-9 13-19 18-31 5-12 7-26 7-43 0-3 0-7 0-10-1-15-2-29-4-41 5-6 7-16 7-30 0-19-8-31-23-37-4-13-9-23-15-30-11-12-16-23-16-32 0-13 3-25 10-37 7-12 16-21 28-28 10-5 25-11 46-18 21-8 40-15 56-22 16-7 27-13 33-19 6-6 11-13 14-23 3-9 4-18 5-25l0-11z"/>
<glyph glyph-name="search" unicode="&#57391;" d="M320 307c0-66-54-119-120-119-66 0-120 54-120 120 0 66 54 120 120 120 66-1 120-54 120-121 0 0 0 0 0 0z m164-253c0 9-3 17-9 22l-134 126c18 30 30 66 31 105 0 95-77 172-172 172-95 0-172-77-172-172 0-95 77-172 172-172 39 1 75 12 106 31l126-133c6-6 13-9 22-9 17 0 30 14 30 31z"/>
<glyph glyph-name="views" unicode="&#57392;" d="M0 251c2 17 13 36 33 57 27 27 57 49 90 66 44 20 88 31 133 31 47-1 91-11 133-31 35-18 65-40 90-66 22-25 33-44 33-57-2-16-13-35-33-55-27-28-57-50-90-66-44-21-88-32-133-32-47 1-91 11-133 32-35 18-65 40-90 66-22 24-33 43-33 55z m135 0c0-32 12-59 35-81 24-22 53-33 86-33 33 0 62 11 86 33 23 22 35 49 35 81 0 33-12 60-35 82-24 22-53 33-86 34-33 0-62-11-86-34-23-23-35-50-35-82z m44 1c0 20 8 38 23 52 15 14 33 22 54 22 21 0 39-8 54-22 15-14 23-32 23-52 0-21-8-38-23-52-15-15-33-22-54-22-21-1-39 7-54 22-15 15-23 32-23 52z"/>
<glyph glyph-name="block-header" unicode="&#57393;" d="M507 285l-73-74-59 59-60-59 0 0-59 59-59-59 0 0-59 59-59-59 0 0-74 74 15 14 59-59 59 59 0 0 0 0 59-59 59 59 0 0 59-59 60 59 0 0 0 0 59-59 58 59z"/>
<glyph glyph-name="category" unicode="&#57394;" d="M507 252c0 0 0 1 0 1 0 6-3 12-7 17l-105 110c-4 4-9 6-16 6-6 0-12-2-16-6l-8-10c-4-4-7-10-7-16 0-7 3-12 7-16l56-58-390 0c-10-1-18-9-18-19 0-1 0-3 0-4l0-7c0-1 0-2 0-4 0-10 8-18 17-19l391 0-57-57c-4-4-7-9-7-16 0-6 3-12 7-16l8-10c5-4 10-6 16-6 7 0 12 2 17 6l105 107c4 4 7 10 7 17 0 0 0 0 0 0z"/>
<glyph glyph-name="comments" unicode="&#57395;" d="M0 406c0 21 27 43 48 43l303 0c21 0 43-22 43-44l0-149c0-21-15-43-37-43l-160 0-118-79 0 65c0 11-7 14-17 14l-22 0c-21 0-40 22-40 43z m433 4l0-193c0-21-15-43-36-43l-119 0 116-118 0 78 82 0c21 0 36 22 36 43l0 200c0 21-15 33-36 33z"/>
<glyph glyph-name="modal-close" unicode="&#57396;" d="M512 24c0 3-1 6-3 8l-220 219 220 220c2 2 3 5 3 8 0 3-1 6-3 8l-17 17c-2 2-5 3-8 3-4 0-6-1-9-3l-219-219-219 219c-3 2-6 3-9 3-3 0-6-1-8-3l-17-17c-2-2-3-5-3-8 0-3 1-6 3-8l220-220-220-219c-2-2-3-5-3-8 0-3 1-6 3-8l17-17c2-2 5-3 8-3 4 0 6 1 9 3l219 219 219-219c3-2 5-3 9-3 3 0 6 1 8 3l17 17c2 2 3 5 3 8 0 0 0 0 0 0z"/>
<glyph glyph-name="close-mobile" unicode="&#57397;" d="M30 5c2 0 4 1 6 3l220 220 220-220c2-2 4-3 6-3 3 0 5 1 7 3l10 11c2 1 3 4 3 6 0 2-1 5-3 6l-220 220 221 220c1 2 2 4 2 7 0 2-1 4-2 6l-11 11c-2 2-4 2-7 2-2 0-4 0-6-2l-220-220-220 220c-2 2-4 2-6 2-3 0-5 0-7-2l-11-11c-1-2-2-4-2-6 0-2 1-5 2-6l221-221-221-220c-1-1-2-4-2-6 0-2 1-5 2-6l11-11c2-2 4-3 7-3z"/>
<glyph glyph-name="close" unicode="&#57398;" d="M81 118c0 13 4 23 13 32l100 100-100 100c-9 9-13 19-13 31 0 13 4 23 13 32 9 8 19 13 31 13 12 0 22-5 31-13l101-101 99 101c9 8 19 13 32 13 12 0 22-5 31-13 8-9 13-19 13-32 0-12-5-22-13-31l-100-100 100-100c8-9 13-19 13-32 0-12-5-22-13-31-9-8-19-13-31-13-13 0-23 5-32 13l-99 100-101-100c-8-8-19-13-31-13-12 0-23 5-31 13-9 9-13 19-13 31z"/>
<glyph glyph-name="menu-down" unicode="&#57399;" d="M481 277l-212-212c-4-4-8-6-13-6-5 0-9 2-13 6l-212 212c-4 3-5 8-5 13 0 5 1 9 5 13l47 47c4 3 9 5 14 5 5 0 9-2 12-5l152-152 152 152c3 3 8 5 12 5 5 0 10-2 14-5l47-47c4-4 5-8 5-13 0-5-1-9-5-13z"/>
<glyph glyph-name="menu-up" unicode="&#57400;" d="M481 127l-47-47c-4-4-9-5-14-5-5 0-9 1-12 5l-152 152-152-152c-3-4-8-5-12-5-5 0-10 1-14 5l-47 47c-4 4-5 8-5 13 0 5 1 10 5 13l212 212c4 4 8 5 13 5 5 0 9-1 13-5l212-212c4-4 5-8 5-13 0-4-1-9-5-13z"/>
<glyph glyph-name="left-arrow" unicode="&#57401;" d="M408 421l-152-151 152-152c3-4 5-8 5-13 0-5-2-9-5-13l-48-47c-3-4-8-6-12-6-5 0-9 2-13 6l-212 212c-4 3-6 8-6 13 0 5 2 9 6 13l212 212c3 3 8 5 13 5 5 0 9-2 12-5l48-48c3-3 5-8 5-13 0-5-2-9-5-13z"/>
<glyph glyph-name="right-arrow" unicode="&#57402;" d="M390 257l-212-212c-4-4-8-6-13-6-5 0-9 2-13 6l-48 47c-3 4-5 8-5 13 0 5 2 9 5 13l152 152-152 151c-3 4-5 8-5 13 0 5 2 9 5 13l48 48c3 3 8 5 13 5 5 0 9-2 13-5l212-212c3-4 5-8 5-13 0-5-2-9-5-13z"/>
<glyph glyph-name="down" unicode="&#57403;" d="M396 288l-120-114c-6-7-13-10-20-10-8 0-14 3-20 10l-120 114c-6 6-8 13-8 21 0 9 2 16 8 21 13 13 26 13 40 0l100-96 100 96c14 13 27 13 40 0 6-5 8-12 8-21 0-8-2-15-8-21z"/>
<glyph glyph-name="left" unicode="&#57404;" d="M293 393c4 5 11 8 20 8 8 0 15-3 21-8 13-13 13-26 0-41l-96-101 96-99c13-15 13-29 0-41-6-5-13-8-21-8-8 0-15 3-20 8l-116 121c-6 5-8 12-8 19 0 9 2 15 8 21 70 73 109 113 116 121z"/>
<glyph glyph-name="right" unicode="&#57405;" d="M219 393l116-121c5-6 8-12 8-21 0-7-3-14-8-19l-116-121c-5-5-12-8-20-8-8 0-15 3-21 8-12 12-12 26 0 41l95 99-95 101c-12 15-12 28 0 41 6 5 13 8 21 8 9 0 15-3 20-8z"/>
<glyph glyph-name="menu-left" unicode="&#57406;" d="M410 507c7 0 14-7 22-14 14-15 7-37 0-44l-234-198 226-197c15-15 15-29 0-44-7-15-22-22-36-7l-256 219c-15 7-15 15-15 29 0 8 7 15 15 22l256 227c7 7 14 7 22 7z"/>
<glyph glyph-name="menu-right" unicode="&#57407;" d="M102-5c-7 0-14 8-22 15-14 7-7 29 8 44l226 205-226 190c-15 14-22 36-8 44 15 14 30 14 44 0l256-220c8-7 15-14 15-22 0-7-7-14-15-22l-256-226c-7-8-14-8-22-8z"/>
<glyph glyph-name="up" unicode="&#57408;" d="M396 216c6-6 8-13 8-21 0-9-2-16-8-21-13-13-26-13-40 0l-100 96-100-96c-14-13-27-13-40 0-6 5-8 12-8 21 0 8 2 15 8 21l120 114c5 6 12 8 20 8 8 0 15-2 20-8z"/>
<glyph glyph-name="read-down" unicode="&#57409;" d="M67 364l189-182 190 182c8 9 16 9 25 0 9-7 9-16 0-25l-203-200c-7-8-15-8-24 0l-203 200c-9 9-9 18 0 25 8 8 17 8 26 0z"/>
<glyph glyph-name="modal-back" unicode="&#57410;" d="M384 479c0 3-1 6-3 8l-17 17c-2 3-4 4-7 4-3 0-6-1-8-4l-243-244c-2-2-4-5-4-8 0-4 2-6 4-9l243-244c2-3 5-4 8-4 3 0 6 1 7 4l17 17c2 2 3 5 3 8 0 4-1 6-3 9l-219 218 219 219c2 3 3 5 3 9z"/>
</font>
</defs>
</svg>
